<svg width="68" height="68" viewBox="0 0 68 68" fill="none" xmlns="http://www.w3.org/2000/svg">
<g filter="url(#filter0_d)">
<circle cx="34" cy="34" r="14" fill="white"/>
</g>
<path d="M27.2922 29.7464C29.2137 31.1721 32.5853 33.6803 33.5762 34.4624C33.7092 34.5679 33.8519 34.6216 34 34.6216C34.1479 34.6216 34.2903 34.5684 34.423 34.4634C35.4148 33.6805 38.7864 31.1721 40.7079 29.7464C40.8275 29.6578 40.8458 29.5021 40.7489 29.3938C40.525 29.1435 40.1912 29 39.8334 29H28.1667C27.8089 29 27.4751 29.1435 27.2512 29.3938C27.1544 29.5021 27.1726 29.6578 27.2922 29.7464Z" fill="#1A1B1E"/>
<path d="M40.8308 30.5189C40.7274 30.4768 40.6058 30.4915 40.5198 30.5559C39.2614 31.4904 37.6034 32.7252 36.353 33.6675C36.2872 33.7169 36.2502 33.7895 36.2516 33.8656C36.253 33.9415 36.2932 34.0131 36.361 34.0605C37.5228 34.8758 39.2737 35.9973 40.538 36.7944C40.5884 36.8263 40.6482 36.8425 40.7083 36.8425C40.7539 36.8425 40.7995 36.8333 40.8414 36.8143C40.9388 36.7706 41 36.6828 41 36.587V30.7508C41 30.6512 40.9339 30.5606 40.8308 30.5189Z" fill="#1A1B1E"/>
<path d="M27.462 36.7944C28.7267 35.9973 30.4778 34.8759 31.6394 34.0606C31.7071 34.0132 31.7473 33.9415 31.7487 33.8657C31.7502 33.7896 31.7131 33.717 31.6473 33.6675C30.3969 32.7252 28.7386 31.4905 27.4802 30.5559C27.3936 30.4915 27.2717 30.4773 27.1692 30.519C27.0661 30.5606 27 30.6512 27 30.7508V36.587C27 36.6828 27.0613 36.7707 27.1586 36.8144C27.2005 36.8333 27.2461 36.8426 27.2917 36.8426C27.3518 36.8426 27.4116 36.8263 27.462 36.7944Z" fill="#1A1B1E"/>
<path d="M40.6426 37.4897C39.4215 36.7244 37.1722 35.2974 35.8295 34.3426C35.7201 34.2645 35.5618 34.267 35.4541 34.3484C35.1907 34.5498 34.9702 34.7195 34.8138 34.8427C34.3336 35.2225 33.6671 35.2225 33.1857 34.8422C33.0299 34.7192 32.8094 34.549 32.546 34.3484C32.4392 34.2665 32.2805 34.264 32.1708 34.3426C30.8327 35.2942 28.5808 36.7228 27.3578 37.4897C27.2897 37.5326 27.2458 37.5987 27.2373 37.6719C27.229 37.745 27.2566 37.8176 27.3139 37.8715C27.5347 38.0799 27.8457 38.1994 28.1667 38.1994H39.8334C40.1544 38.1994 40.4652 38.0799 40.6865 37.8715C40.7434 37.8179 40.7714 37.7452 40.7631 37.6721C40.7545 37.599 40.7107 37.5327 40.6426 37.4897Z" fill="#1A1B1E"/>
<defs>
<filter id="filter0_d" x="0" y="0" width="68" height="68" filterUnits="userSpaceOnUse" color-interpolation-filters="sRGB">
<feFlood flood-opacity="0" result="BackgroundImageFix"/>
<feColorMatrix in="SourceAlpha" type="matrix" values="0 0 0 0 0 0 0 0 0 0 0 0 0 0 0 0 0 0 127 0"/>
<feMorphology radius="5" operator="dilate" in="SourceAlpha" result="effect1_dropShadow"/>
<feOffset/>
<feGaussianBlur stdDeviation="7.5"/>
<feColorMatrix type="matrix" values="0 0 0 0 0 0 0 0 0 0.82 0 0 0 0 1 0 0 0 0.35 0"/>
<feBlend mode="normal" in2="BackgroundImageFix" result="effect1_dropShadow"/>
<feBlend mode="normal" in="SourceGraphic" in2="effect1_dropShadow" result="shape"/>
</filter>
</defs>
</svg>
