<svg width="68" height="68" viewBox="0 0 68 68" fill="none" xmlns="http://www.w3.org/2000/svg">
<g filter="url(#filter0_d)">
<path d="M48 34C48 41.732 41.732 48 34 48C26.268 48 20 41.732 20 34C20 26.268 26.268 20 34 20C41.732 20 48 26.268 48 34Z" fill="white"/>
</g>
<path d="M36.7171 26H31.3119C30.3929 26 29.6121 26.7493 29.6121 27.668V40.3339C29.6121 41.2526 30.3764 42 31.2953 42L36.7095 41.9942C37.6283 41.9942 38.38 41.2466 38.38 40.3278L38.3879 27.6671C38.3878 26.7451 37.6398 26 36.7171 26ZM33.2336 27H34.8019C34.9396 27 35.0518 27.1119 35.0518 27.25C35.0518 27.3881 34.9396 27.5 34.8019 27.5H33.2336C33.0955 27.5 32.9837 27.3881 32.9837 27.25C32.9837 27.1119 33.0955 27 33.2336 27ZM32.2913 27.0796C32.384 26.9871 32.5526 26.9858 32.6451 27.0796C32.6915 27.1258 32.7189 27.1908 32.7189 27.2571C32.7189 27.3222 32.6915 27.387 32.6451 27.4334C32.599 27.4798 32.5338 27.5071 32.4688 27.5071C32.4026 27.5071 32.339 27.4798 32.2913 27.4334C32.2452 27.3871 32.2189 27.3222 32.2189 27.2571C32.2187 27.1908 32.2452 27.1258 32.2913 27.0796ZM33.9673 41.5045C33.5548 41.5045 33.2193 41.1687 33.2193 40.7564C33.2193 40.3438 33.5548 40.0082 33.9673 40.0082C34.3798 40.0082 34.7153 40.3438 34.7153 40.7564C34.7153 41.1687 34.3797 41.5045 33.9673 41.5045ZM37.6119 39.4997H30.4871V28.3751H37.6119V39.4997Z" fill="#1A1B1E"/>
<defs>
<filter id="filter0_d" x="0" y="0" width="68" height="68" filterUnits="userSpaceOnUse" color-interpolation-filters="sRGB">
<feFlood flood-opacity="0" result="BackgroundImageFix"/>
<feColorMatrix in="SourceAlpha" type="matrix" values="0 0 0 0 0 0 0 0 0 0 0 0 0 0 0 0 0 0 127 0"/>
<feMorphology radius="5" operator="dilate" in="SourceAlpha" result="effect1_dropShadow"/>
<feOffset/>
<feGaussianBlur stdDeviation="7.5"/>
<feColorMatrix type="matrix" values="0 0 0 0 0 0 0 0 0 0.82 0 0 0 0 1 0 0 0 0.35 0"/>
<feBlend mode="normal" in2="BackgroundImageFix" result="effect1_dropShadow"/>
<feBlend mode="normal" in="SourceGraphic" in2="effect1_dropShadow" result="shape"/>
</filter>
</defs>
</svg>
