<svg width="79" height="41" viewBox="0 0 79 41" fill="none" xmlns="http://www.w3.org/2000/svg">
<path d="M0.104 1.12H5.192L11.336 29.776L17.192 1.12H22.136L13.544 40H8.792L0.104 1.12ZM25.3989 34.288H30.5349V40H25.3989V34.288ZM46.3745 1.12H51.7025V40H46.3745V1.12ZM67.9288 40.432C64.1208 40.432 61.3848 39.36 59.7208 37.216C58.0888 35.04 57.2728 31.904 57.2728 27.808V13.072C57.2728 9.04 58.1048 5.984 59.7688 3.904C61.4328 1.824 64.1528 0.783998 67.9288 0.783998C71.7048 0.783998 74.4088 1.84 76.0408 3.952C77.7048 6.032 78.5368 9.072 78.5368 13.072V27.856C78.5368 31.888 77.7048 34.992 76.0408 37.168C74.3768 39.344 71.6728 40.432 67.9288 40.432ZM67.9288 36.16C69.9448 36.16 71.3048 35.568 72.0088 34.384C72.7128 33.2 73.0648 31.408 73.0648 29.008V11.968C73.0648 9.6 72.7128 7.856 72.0088 6.736C71.3048 5.584 69.9448 5.008 67.9288 5.008C65.8808 5.008 64.5048 5.584 63.8008 6.736C63.0968 7.856 62.7448 9.6 62.7448 11.968V29.008C62.7448 31.408 63.0968 33.2 63.8008 34.384C64.5048 35.568 65.8808 36.16 67.9288 36.16Z" fill="white"/>
</svg>
