<svg width="68" height="68" viewBox="0 0 68 68" fill="none" xmlns="http://www.w3.org/2000/svg">
<g filter="url(#filter0_d)">
<circle cx="34" cy="34" r="13.5" stroke="white"/>
</g>
<circle cx="34" cy="34" r="14" fill="#1A1B1E"/>
<path d="M34 48C41.7338 48 48 41.7338 48 34C48 26.2662 41.7338 20 34 20C26.2662 20 20 26.2662 20 34C20 41.7338 26.2662 48 34 48ZM26.4062 33.6967L39.9045 28.4922C40.531 28.2658 41.0782 28.645 40.8752 29.5923L40.8763 29.5912L38.578 40.419C38.4077 41.1867 37.9515 41.3733 37.3133 41.0117L33.8133 38.4322L32.1252 40.0585C31.9385 40.2452 31.781 40.4027 31.4193 40.4027L31.6678 36.8408L38.1545 30.9807C38.4368 30.7322 38.0915 30.5922 37.7193 30.8395L29.7032 35.8865L26.2475 34.8085C25.4973 34.5705 25.481 34.0583 26.4062 33.6967Z" fill="white"/>
<defs>
<filter id="filter0_d" x="0" y="0" width="68" height="68" filterUnits="userSpaceOnUse" color-interpolation-filters="sRGB">
<feFlood flood-opacity="0" result="BackgroundImageFix"/>
<feColorMatrix in="SourceAlpha" type="matrix" values="0 0 0 0 0 0 0 0 0 0 0 0 0 0 0 0 0 0 127 0"/>
<feMorphology radius="5" operator="dilate" in="SourceAlpha" result="effect1_dropShadow"/>
<feOffset/>
<feGaussianBlur stdDeviation="7.5"/>
<feColorMatrix type="matrix" values="0 0 0 0 0 0 0 0 0 0.82 0 0 0 0 1 0 0 0 0.35 0"/>
<feBlend mode="normal" in2="BackgroundImageFix" result="effect1_dropShadow"/>
<feBlend mode="normal" in="SourceGraphic" in2="effect1_dropShadow" result="shape"/>
</filter>
</defs>
</svg>
