<svg width="200" height="175" viewBox="0 0 200 175" fill="none" xmlns="http://www.w3.org/2000/svg">
<path d="M180.025 101.006L162.641 85.7754C162.367 85.5352 161.923 85.533 161.65 85.7724L113.665 127.814L113.285 12.3989C113.284 12.0746 112.954 11.7852 112.583 11.7841L86.3348 11.7103C85.9486 11.7091 85.6365 11.9825 85.6378 12.3209L86.0224 128.037L37.3585 85.4015C37.0844 85.1613 36.6411 85.1591 36.3679 85.3985L19.2782 100.371C18.1405 101.368 18.1469 102.995 19.2935 104L97.951 172.914C99.0975 173.917 100.955 173.922 102.092 172.925L180.033 104.639C181.174 103.64 181.171 102.01 180.025 101.006ZM101.099 172.055C100.505 172.576 99.5355 172.572 98.9381 172.049L20.2806 103.135C19.6722 102.602 19.6679 101.77 20.2722 101.24L36.8683 86.7L86.234 129.951C86.4348 130.127 86.7362 130.181 86.997 130.086C87.2577 129.992 87.427 129.769 87.427 129.521L87.04 12.9379L111.889 13.0084L112.272 129.291C112.273 129.54 112.446 129.767 112.706 129.859C112.967 129.954 113.269 129.902 113.468 129.728L162.151 87.0756L179.038 101.871C179.646 102.404 179.647 103.238 179.04 103.769L101.099 172.055Z" fill="white"/>
</svg>
